<?xml version="1.0" encoding="us-ascii" standalone="no"?><svg xmlns="http://www.w3.org/2000/svg" xmlns:xlink="http://www.w3.org/1999/xlink" contentStyleType="text/css" height="605px" preserveAspectRatio="none" style="width:843px;height:605px;background:#FFFFFF;" version="1.1" viewBox="0 0 843 605" width="843px" zoomAndPan="magnify"><defs/><g><!--entity HC--><g id="elem_HC"><rect fill="#FFFFCC" height="52.5938" rx="2.5" ry="2.5" style="stroke:#181818;stroke-width:0.5;" width="111" x="446" y="7"/><text fill="#000000" font-family="sans-serif" font-size="14" font-style="italic" lengthAdjust="spacing" textLength="81" x="461" y="29.9951">&#171;behavior&#187;</text><text fill="#000000" font-family="sans-serif" font-size="14" lengthAdjust="spacing" textLength="91" x="456" y="46.292">Handle claim</text></g><!--entity CI--><g id="elem_CI"><rect fill="#FFFFCC" height="52.5938" rx="2.5" ry="2.5" style="stroke:#181818;stroke-width:0.5;" width="167" x="21" y="128"/><text fill="#000000" font-family="sans-serif" font-size="14" font-style="italic" lengthAdjust="spacing" textLength="81" x="64" y="150.9951">&#171;behavior&#187;</text><text fill="#000000" font-family="sans-serif" font-size="14" lengthAdjust="spacing" textLength="147" x="31" y="167.292">Capture Information</text></g><!--entity NAS--><g id="elem_NAS"><rect fill="#FFFFCC" height="68.8906" rx="2.5" ry="2.5" style="stroke:#181818;stroke-width:0.5;" width="192" x="223.5" y="120"/><text fill="#000000" font-family="sans-serif" font-size="14" font-style="italic" lengthAdjust="spacing" textLength="81" x="279" y="142.9951">&#171;behavior&#187;</text><text fill="#000000" font-family="sans-serif" font-size="14" lengthAdjust="spacing" textLength="44" x="233.5" y="159.292">Notify</text><text fill="#000000" font-family="sans-serif" font-size="14" lengthAdjust="spacing" textLength="172" x="233.5" y="175.5889">Additional Stakeholders</text></g><!--entity V--><g id="elem_V"><rect fill="#FFFFCC" height="52.5938" rx="2.5" ry="2.5" style="stroke:#181818;stroke-width:0.5;" width="101" x="451" y="128"/><text fill="#000000" font-family="sans-serif" font-size="14" font-style="italic" lengthAdjust="spacing" textLength="81" x="461" y="150.9951">&#171;behavior&#187;</text><text fill="#000000" font-family="sans-serif" font-size="14" lengthAdjust="spacing" textLength="59" x="472" y="167.292">Validate</text></g><!--entity I--><g id="elem_I"><rect fill="#FFFFCC" height="52.5938" rx="2.5" ry="2.5" style="stroke:#181818;stroke-width:0.5;" width="101" x="587" y="128"/><text fill="#000000" font-family="sans-serif" font-size="14" font-style="italic" lengthAdjust="spacing" textLength="81" x="597" y="150.9951">&#171;behavior&#187;</text><text fill="#000000" font-family="sans-serif" font-size="14" lengthAdjust="spacing" textLength="81" x="597" y="167.292">Investigate</text></g><!--entity P--><g id="elem_P"><rect fill="#FFFFCC" height="52.5938" rx="2.5" ry="2.5" style="stroke:#181818;stroke-width:0.5;" width="101" x="723" y="128"/><text fill="#000000" font-family="sans-serif" font-size="14" font-style="italic" lengthAdjust="spacing" textLength="81" x="733" y="150.9951">&#171;behavior&#187;</text><text fill="#000000" font-family="sans-serif" font-size="14" lengthAdjust="spacing" textLength="25" x="761" y="167.292">Pay</text></g><!--entity scanning--><g id="elem_scanning"><rect fill="#C2F0FF" height="52.5938" rx="2.5" ry="2.5" style="stroke:#181818;stroke-width:0.5;" width="101" x="238" y="249"/><text fill="#000000" font-family="sans-serif" font-size="14" font-style="italic" lengthAdjust="spacing" textLength="81" x="248" y="271.9951">&#171;behavior&#187;</text><text fill="#000000" font-family="sans-serif" font-size="14" lengthAdjust="spacing" textLength="65" x="256" y="288.292">Scanning</text></g><!--entity customerAdministration--><g id="elem_customerAdministration"><rect fill="#C2F0FF" height="52.5938" rx="2.5" ry="2.5" style="stroke:#181818;stroke-width:0.5;" width="195" x="7" y="249"/><text fill="#000000" font-family="sans-serif" font-size="14" font-style="italic" lengthAdjust="spacing" textLength="81" x="64" y="271.9951">&#171;behavior&#187;</text><text fill="#000000" font-family="sans-serif" font-size="14" lengthAdjust="spacing" textLength="175" x="17" y="288.292">Customer admnistration</text></g><!--entity claimsAdministration--><g id="elem_claimsAdministration"><rect fill="#C2F0FF" height="52.5938" rx="2.5" ry="2.5" style="stroke:#181818;stroke-width:0.5;" width="172" x="375.5" y="249"/><text fill="#000000" font-family="sans-serif" font-size="14" font-style="italic" lengthAdjust="spacing" textLength="81" x="421" y="271.9951">&#171;behavior&#187;</text><text fill="#000000" font-family="sans-serif" font-size="14" lengthAdjust="spacing" textLength="152" x="385.5" y="288.292">Claims admnistration</text></g><!--entity Printing--><g id="elem_Printing"><rect fill="#C2F0FF" height="52.5938" rx="2.5" ry="2.5" style="stroke:#181818;stroke-width:0.5;" width="101" x="583" y="249"/><text fill="#000000" font-family="sans-serif" font-size="14" font-style="italic" lengthAdjust="spacing" textLength="81" x="593" y="271.9951">&#171;behavior&#187;</text><text fill="#000000" font-family="sans-serif" font-size="14" lengthAdjust="spacing" textLength="57" x="605" y="288.292">Printing</text></g><!--entity Payment--><g id="elem_Payment"><rect fill="#C2F0FF" height="52.5938" rx="2.5" ry="2.5" style="stroke:#181818;stroke-width:0.5;" width="101" x="723" y="249"/><text fill="#000000" font-family="sans-serif" font-size="14" font-style="italic" lengthAdjust="spacing" textLength="81" x="733" y="271.9951">&#171;behavior&#187;</text><text fill="#000000" font-family="sans-serif" font-size="14" lengthAdjust="spacing" textLength="64" x="741.5" y="288.292">Payment</text></g><!--entity DMS--><g id="elem_DMS"><rect fill="#C2F0FF" height="85.1875" rx="2.5" ry="2.5" style="stroke:#181818;stroke-width:0.5;" width="114" x="560.5" y="362"/><text fill="#000000" font-family="sans-serif" font-size="14" lengthAdjust="spacing" textLength="4" x="615.5" y="384.9951">&#160;</text><text fill="#000000" font-family="sans-serif" font-size="14" lengthAdjust="spacing" textLength="75" x="570.5" y="401.292">Document</text><text fill="#000000" font-family="sans-serif" font-size="14" lengthAdjust="spacing" textLength="94" x="570.5" y="417.5889">Management</text><text fill="#000000" font-family="sans-serif" font-size="14" lengthAdjust="spacing" textLength="54" x="570.5" y="433.8857">System</text></g><!--entity CRM--><g id="elem_CRM"><rect fill="#C2F0FF" height="85.1875" rx="2.5" ry="2.5" style="stroke:#181818;stroke-width:0.5;" width="76" x="66.5" y="362"/><text fill="#000000" font-family="sans-serif" font-size="14" lengthAdjust="spacing" textLength="4" x="102.5" y="384.9951">&#160;</text><text fill="#000000" font-family="sans-serif" font-size="14" lengthAdjust="spacing" textLength="56" x="76.5" y="401.292">General</text><text fill="#000000" font-family="sans-serif" font-size="14" lengthAdjust="spacing" textLength="32" x="76.5" y="417.5889">CRM</text><text fill="#000000" font-family="sans-serif" font-size="14" lengthAdjust="spacing" textLength="54" x="76.5" y="433.8857">System</text></g><!--entity HAPA--><g id="elem_HAPA"><rect fill="#C2F0FF" height="85.1875" rx="2.5" ry="2.5" style="stroke:#181818;stroke-width:0.5;" width="127" x="398" y="362"/><text fill="#000000" font-family="sans-serif" font-size="14" lengthAdjust="spacing" textLength="4" x="459.5" y="384.9951">&#160;</text><text fill="#000000" font-family="sans-serif" font-size="14" lengthAdjust="spacing" textLength="98" x="408" y="401.292">Home &amp; Away</text><text fill="#000000" font-family="sans-serif" font-size="14" lengthAdjust="spacing" textLength="42" x="408" y="417.5889">Policy</text><text fill="#000000" font-family="sans-serif" font-size="14" lengthAdjust="spacing" textLength="107" x="408" y="433.8857">Administration</text></g><!--entity HFPA--><g id="elem_HFPA"><rect fill="#C2F0FF" height="85.1875" rx="2.5" ry="2.5" style="stroke:#181818;stroke-width:0.5;" width="127" x="710" y="362"/><text fill="#000000" font-family="sans-serif" font-size="14" lengthAdjust="spacing" textLength="4" x="771.5" y="384.9951">&#160;</text><text fill="#000000" font-family="sans-serif" font-size="14" lengthAdjust="spacing" textLength="98" x="720" y="401.292">Home &amp; Away</text><text fill="#000000" font-family="sans-serif" font-size="14" lengthAdjust="spacing" textLength="62" x="720" y="417.5889">Financial</text><text fill="#000000" font-family="sans-serif" font-size="14" lengthAdjust="spacing" textLength="107" x="720" y="433.8857">Administration</text></g><!--reverse link HC to CI--><g id="link_HC_CI"><path d="M434.3764,53.0759 C374.7464,69.7129 288.903,94.134 205.5,120 C197.383,122.517 188.923,125.212 180.503,127.938 " fill="none" id="HC-backto-CI" style="stroke:#181818;stroke-width:1.0;"/><polygon fill="#181818" points="445.935,49.851,439.0808,47.6106,434.3764,53.0759,441.2307,55.3163,445.935,49.851" style="stroke:#181818;stroke-width:1.0;"/></g><!--reverse link HC to NAS--><g id="link_HC_NAS"><path d="M452.4126,66.5954 C425.6746,84.0794 399.979,100.879 370.924,119.877 " fill="none" id="HC-backto-NAS" style="stroke:#181818;stroke-width:1.0;"/><polygon fill="#181818" points="462.456,60.028,455.2452,59.9639,452.4126,66.5954,459.6234,66.6595,462.456,60.028" style="stroke:#181818;stroke-width:1.0;"/></g><!--reverse link HC to V--><g id="link_HC_V"><path d="M501.5,72.028 C501.5,91.97 501.5,107.568 501.5,127.603 " fill="none" id="HC-backto-V" style="stroke:#181818;stroke-width:1.0;"/><polygon fill="#181818" points="501.5,60.028,497.5,66.028,501.5,72.028,505.5,66.028,501.5,60.028" style="stroke:#181818;stroke-width:1.0;"/></g><!--reverse link HC to I--><g id="link_HC_I"><path d="M539.7059,67.93 C562.4969,87.872 585.006,107.568 607.904,127.603 " fill="none" id="HC-backto-I" style="stroke:#181818;stroke-width:1.0;"/><polygon fill="#181818" points="530.675,60.028,532.5565,66.9893,539.7059,67.93,537.8245,60.9687,530.675,60.028" style="stroke:#181818;stroke-width:1.0;"/></g><!--reverse link HC to P--><g id="link_HC_P"><path d="M568.4268,61.336 C609.6528,78.082 655.873,97.401 705.5,120 C711.129,122.563 716.984,125.315 722.791,128.099 " fill="none" id="HC-backto-P" style="stroke:#181818;stroke-width:1.0;"/><polygon fill="#181818" points="557.309,56.82,561.3625,62.784,568.4268,61.336,564.3732,55.3721,557.309,56.82" style="stroke:#181818;stroke-width:1.0;"/></g><!--link CI to NAS--><g id="link_CI_NAS"><path d="M188.064,154.5 C199.873,154.5 203.682,154.5 215.49,154.5 " fill="none" id="CI-to-NAS" style="stroke:#181818;stroke-width:1.0;"/><polygon fill="#181818" points="223.49,154.5,215.49,151.5,215.49,157.5,223.49,154.5" style="stroke:#181818;stroke-width:1.0;"/></g><!--link NAS to V--><g id="link_NAS_V"><path d="M415.832,154.5 C427.544,154.5 431.257,154.5 442.969,154.5 " fill="none" id="NAS-to-V" style="stroke:#181818;stroke-width:1.0;"/><polygon fill="#181818" points="450.969,154.5,442.969,151.5,442.969,157.5,450.969,154.5" style="stroke:#181818;stroke-width:1.0;"/></g><!--link V to I--><g id="link_V_I"><path d="M552.234,154.5 C563.781,154.5 567.327,154.5 578.874,154.5 " fill="none" id="V-to-I" style="stroke:#181818;stroke-width:1.0;"/><polygon fill="#181818" points="586.874,154.5,578.874,151.5,578.874,157.5,586.874,154.5" style="stroke:#181818;stroke-width:1.0;"/></g><!--link I to P--><g id="link_I_P"><path d="M688.234,154.5 C699.781,154.5 703.327,154.5 714.874,154.5 " fill="none" id="I-to-P" style="stroke:#181818;stroke-width:1.0;"/><polygon fill="#181818" points="722.874,154.5,714.874,151.5,714.874,157.5,722.874,154.5" style="stroke:#181818;stroke-width:1.0;"/></g><!--reverse link CI to scanning--><g id="link_CI_scanning"><path d="M149.0111,184.2864 C179.9501,204.2964 217.772,228.757 248.776,248.809 " fill="none" id="CI-backto-scanning" style="stroke:#181818;stroke-width:1.0;"/><polygon fill="#181818" points="143.973,181.028,149.3579,189.2744,148.1714,183.7434,153.7025,182.5569,143.973,181.028" style="stroke:#181818;stroke-width:1.0;"/></g><!--reverse link CI to customerAdministration--><g id="link_CI_customerAdministration"><path d="M104.5,187.028 C104.5,206.97 104.5,228.568 104.5,248.603 " fill="none" id="CI-backto-customerAdministration" style="stroke:#181818;stroke-width:1.0;"/><polygon fill="#181818" points="104.5,181.028,100.5,190.028,104.5,186.028,108.5,190.028,104.5,181.028" style="stroke:#181818;stroke-width:1.0;"/></g><!--reverse link NAS to claimsAdministration--><g id="link_NAS_claimsAdministration"><path d="M364.4106,193.1359 C387.0406,212.1009 410.224,231.529 431.027,248.962 " fill="none" id="NAS-backto-claimsAdministration" style="stroke:#181818;stroke-width:1.0;"/><polygon fill="#181818" points="359.812,189.282,364.1407,198.1286,363.6442,192.4936,369.2792,191.9971,359.812,189.282" style="stroke:#181818;stroke-width:1.0;"/></g><!--reverse link V to claimsAdministration--><g id="link_V_claimsAdministration"><path d="M491.0074,186.7153 C484.3044,206.6573 476.939,228.568 470.205,248.603 " fill="none" id="V-backto-claimsAdministration" style="stroke:#181818;stroke-width:1.0;"/><polygon fill="#181818" points="492.919,181.028,486.26,188.2845,491.326,185.7674,493.8431,190.8334,492.919,181.028" style="stroke:#181818;stroke-width:1.0;"/></g><!--reverse link I to claimsAdministration--><g id="link_I_claimsAdministration"><path d="M594.7735,184.3887 C565.1785,204.3987 529.153,228.757 499.497,248.809 " fill="none" id="I-backto-claimsAdministration" style="stroke:#181818;stroke-width:1.0;"/><polygon fill="#181818" points="599.744,181.028,590.0478,182.7554,595.6019,183.8286,594.5287,189.3827,599.744,181.028" style="stroke:#181818;stroke-width:1.0;"/></g><!--reverse link P to Payment--><g id="link_P_Payment"><path d="M773.5,187.028 C773.5,206.97 773.5,228.568 773.5,248.603 " fill="none" id="P-backto-Payment" style="stroke:#181818;stroke-width:1.0;"/><polygon fill="#181818" points="773.5,181.028,769.5,190.028,773.5,186.028,777.5,190.028,773.5,181.028" style="stroke:#181818;stroke-width:1.0;"/></g><!--reverse link V to Printing--><g id="link_V_Printing"><path d="M534.2734,185.0456 C556.3934,204.9876 582.55,228.568 604.774,248.603 " fill="none" id="V-backto-Printing" style="stroke:#181818;stroke-width:1.0;"/><polygon fill="#181818" points="529.817,181.028,533.8232,190.0253,533.5306,184.376,539.1799,184.0835,529.817,181.028" style="stroke:#181818;stroke-width:1.0;"/></g><!--reverse link P to Printing--><g id="link_P_Printing"><path d="M738.8945,184.914 C715.4345,204.856 687.538,228.568 663.967,248.603 " fill="none" id="P-backto-Printing" style="stroke:#181818;stroke-width:1.0;"/><polygon fill="#181818" points="743.466,181.028,734.018,183.8093,739.6564,184.2663,739.1994,189.9047,743.466,181.028" style="stroke:#181818;stroke-width:1.0;"/></g><!--reverse link scanning to DMS--><g id="link_scanning_DMS"><path d="M356.2121,301.6602 C362.3361,303.8772 351.588,299.95 357.5,302 C439.167,330.321 463.209,327.584 542.5,362 C548.37,364.5478 554.384,367.4106 560.328,370.4106 " fill="none" id="scanning-backto-DMS" style="stroke:#181818;stroke-width:1.0;stroke-dasharray:7.0,7.0;"/><polygon fill="none" points="339.287,295.533,354.1697,307.3019,358.2545,296.0185,339.287,295.533" style="stroke:#181818;stroke-width:1.0;"/></g><!--reverse link Printing to DMS--><g id="link_Printing_DMS"><path d="M628.0122,320.0588 C625.8572,337.1648 625.227,342.164 622.749,361.8385 " fill="none" id="Printing-backto-DMS" style="stroke:#181818;stroke-width:1.0;stroke-dasharray:7.0,7.0;"/><polygon fill="none" points="630.262,302.2,622.0592,319.3089,633.9651,320.8088,630.262,302.2" style="stroke:#181818;stroke-width:1.0;"/></g><!--reverse link customerAdministration to CRM--><g id="link_customerAdministration_CRM"><path d="M104.5,320.2 C104.5,337.306 104.5,342.164 104.5,361.8385 " fill="none" id="customerAdministration-backto-CRM" style="stroke:#181818;stroke-width:1.0;stroke-dasharray:7.0,7.0;"/><polygon fill="none" points="104.5,302.2,98.5,320.2,110.5,320.2,104.5,302.2" style="stroke:#181818;stroke-width:1.0;"/></g><!--reverse link claimsAdministration to HAPA--><g id="link_claimsAdministration_HAPA"><path d="M461.5,320.2 C461.5,337.306 461.5,342.164 461.5,361.8385 " fill="none" id="claimsAdministration-backto-HAPA" style="stroke:#181818;stroke-width:1.0;stroke-dasharray:7.0,7.0;"/><polygon fill="none" points="461.5,302.2,455.5,320.2,467.5,320.2,461.5,302.2" style="stroke:#181818;stroke-width:1.0;"/></g><!--reverse link Payment to HFPA--><g id="link_Payment_HFPA"><path d="M773.5,320.2 C773.5,337.306 773.5,342.164 773.5,361.8385 " fill="none" id="Payment-backto-HFPA" style="stroke:#181818;stroke-width:1.0;stroke-dasharray:7.0,7.0;"/><polygon fill="none" points="773.5,302.2,767.5,320.2,779.5,320.2,773.5,302.2" style="stroke:#181818;stroke-width:1.0;"/></g><rect fill="#DDDDDD" height="121.4844" id="_legend" rx="7.5" ry="7.5" style="stroke:#000000;stroke-width:1.0;" width="431" x="12" y="464.1875"/><text fill="#000000" font-family="sans-serif" font-size="14" lengthAdjust="spacing" textLength="421" x="17" y="482.1826">Example from the "Archisurance case study" (OpenGroup).</text><text fill="#000000" font-family="sans-serif" font-size="14" lengthAdjust="spacing" textLength="27" x="17" y="498.4795">See</text><line style="stroke:#000000;stroke-width:1.0;" x1="12" x2="443" y1="506.7813" y2="506.7813"/><line style="stroke:#000000;stroke-width:1.0;" x1="12" x2="443" y1="508.7813" y2="508.7813"/><text fill="#000000" font-family="sans-serif" font-size="14" lengthAdjust="spacing" textLength="126" x="21" y="524.7764">:business process</text><line style="stroke:#000000;stroke-width:1.0;" x1="12" x2="443" y1="533.0781" y2="533.0781"/><line style="stroke:#000000;stroke-width:1.0;" x1="12" x2="443" y1="535.0781" y2="535.0781"/><text fill="#000000" font-family="sans-serif" font-size="14" lengthAdjust="spacing" textLength="145" x="21" y="551.0732">: application service</text><line style="stroke:#000000;stroke-width:1.0;" x1="12" x2="443" y1="559.375" y2="559.375"/><line style="stroke:#000000;stroke-width:1.0;" x1="12" x2="443" y1="561.375" y2="561.375"/><text fill="#000000" font-family="sans-serif" font-size="14" lengthAdjust="spacing" textLength="178" x="21" y="577.3701">: application component</text><!--SRC=[fLNRZjem47ttLrXiLRMLmWUiQAIKlS03swYHyiJBa0p1QZAER8SjKZ- -jaCWi5a4Mrx2t4xcd1ax2ZC3L9J8HpEWt3wp4aGruXmqdqtvPF9f5IkPeTPXE9ciS0DR8LKOyhiVZHPa_KmTCQPGcqOXdzDQgWgCaDH2JUUtGhr88zQx9KLvBXmEb3mny1itiinHwP53VOcIMs5JA4KE1drzUclrdBQeZIWwW9jPnR3pXV5LXSnEu5kGorSAh89zopBlcsdVE4cC6RFQ1qeK6nDOS5VeP3jwKfRsh3dhPzlgNlD91aI22iz0xmr7119KMv7XEP6ehakH-JKusP966rcXuf1N9BHH-qMngDa-5EMLE8O-yWwtndhe3Jxml_Yn4cG-nDvkG8LahYra1vs3fWv2jmRlQDHB6ABOHjtuBuJJIy4vwtflRRiS1ncwyZF7wVuyoAnnzKjQ0461xVzafmrMVZOF2t-UOIghMfADNXZmCn8gA9Sq_RKu0R7s6v1tKMPMIFwPHwzWhvfOsXH_vVJPUz1P54TNjtO2-YG8A1Ekqo7Sfm7SimrmgeoRUlmtF1owlg-Jd3dYUz_mYZ3FeaiP63JpxNIuxR0PAx50odc9QyCU_q1LMuvh9IjkDfPifBADq8so9Et70pHoRPhStd9VVjP8pqeszTSnIn3PT_jZlLkFtw_s5nslMrUNSZWO_9x3KGgkM_SXxIZQMMBM1HYwZvhh_ny0]--></g></svg>