<?xml version="1.0" encoding="us-ascii" standalone="no"?><svg xmlns="http://www.w3.org/2000/svg" xmlns:xlink="http://www.w3.org/1999/xlink" contentStyleType="text/css" height="343px" preserveAspectRatio="none" style="width:763px;height:343px;background:#FFFFFF;" version="1.1" viewBox="0 0 763 343" width="763px" zoomAndPan="magnify"><defs/><g><text fill="#000000" font-family="sans-serif" font-size="14" font-weight="bold" lengthAdjust="spacing" textLength="240" x="263.75" y="27.9951">SequenceDiagram as example</text><rect fill="#FFFFFF" height="234.9297" style="stroke:#181818;stroke-width:1.0;" width="10" x="39.5" y="83.5938"/><rect fill="#FFFFFF" height="234.9297" style="stroke:#181818;stroke-width:1.0;" width="10" x="520.5" y="83.5938"/><line style="stroke:#181818;stroke-width:0.5;stroke-dasharray:5.0,5.0;" x1="44" x2="44" y1="73.5938" y2="336.5234"/><line style="stroke:#181818;stroke-width:0.5;stroke-dasharray:5.0,5.0;" x1="525.5" x2="525.5" y1="73.5938" y2="336.5234"/><rect fill="#E2E2F0" height="30.2969" rx="2.5" ry="2.5" style="stroke:#181818;stroke-width:0.5;" width="79" x="5" y="42.2969"/><text fill="#000000" font-family="sans-serif" font-size="14" lengthAdjust="spacing" textLength="65" x="12" y="62.292">1st actor</text><rect fill="#E2E2F0" height="30.2969" rx="2.5" ry="2.5" style="stroke:#181818;stroke-width:0.5;" width="82" x="484.5" y="42.2969"/><text fill="#000000" font-family="sans-serif" font-size="14" lengthAdjust="spacing" textLength="68" x="491.5" y="62.292">2nd actor</text><rect fill="#FFFFFF" height="234.9297" style="stroke:#181818;stroke-width:1.0;" width="10" x="39.5" y="83.5938"/><rect fill="#FFFFFF" height="234.9297" style="stroke:#181818;stroke-width:1.0;" width="10" x="520.5" y="83.5938"/><polygon fill="#181818" points="508.5,100.7266,518.5,104.7266,508.5,108.7266,512.5,104.7266" style="stroke:#181818;stroke-width:1.0;"/><line style="stroke:#181818;stroke-width:1.0;" x1="49.5" x2="514.5" y1="104.7266" y2="104.7266"/><text fill="#000000" font-family="sans-serif" font-size="13" font-weight="bold" lengthAdjust="spacing" textLength="9" x="56.5" y="99.6606">1</text><text fill="#000000" font-family="sans-serif" font-size="13" lengthAdjust="spacing" textLength="434" x="69.5" y="99.6606">Request to provide DocumentReference with embedded Document</text><line style="stroke:#181818;stroke-width:1.0;" x1="530.5" x2="572.5" y1="133.8594" y2="133.8594"/><line style="stroke:#181818;stroke-width:1.0;" x1="572.5" x2="572.5" y1="133.8594" y2="146.8594"/><line style="stroke:#181818;stroke-width:1.0;" x1="531.5" x2="572.5" y1="146.8594" y2="146.8594"/><polygon fill="#181818" points="541.5,142.8594,531.5,146.8594,541.5,150.8594,537.5,146.8594" style="stroke:#181818;stroke-width:1.0;"/><text fill="#000000" font-family="sans-serif" font-size="13" font-weight="bold" lengthAdjust="spacing" textLength="9" x="537.5" y="128.7935">2</text><text fill="#000000" font-family="sans-serif" font-size="13" lengthAdjust="spacing" textLength="140" x="550.5" y="128.7935">Extract the document</text><line style="stroke:#181818;stroke-width:1.0;" x1="530.5" x2="572.5" y1="175.9922" y2="175.9922"/><line style="stroke:#181818;stroke-width:1.0;" x1="572.5" x2="572.5" y1="175.9922" y2="188.9922"/><line style="stroke:#181818;stroke-width:1.0;" x1="531.5" x2="572.5" y1="188.9922" y2="188.9922"/><polygon fill="#181818" points="541.5,184.9922,531.5,188.9922,541.5,192.9922,537.5,188.9922" style="stroke:#181818;stroke-width:1.0;"/><text fill="#000000" font-family="sans-serif" font-size="13" font-weight="bold" lengthAdjust="spacing" textLength="8" x="537.5" y="170.9263">3</text><text fill="#000000" font-family="sans-serif" font-size="13" lengthAdjust="spacing" textLength="121" x="549.5" y="170.9263">Validate document</text><line style="stroke:#181818;stroke-width:1.0;" x1="530.5" x2="572.5" y1="218.125" y2="218.125"/><line style="stroke:#181818;stroke-width:1.0;" x1="572.5" x2="572.5" y1="218.125" y2="231.125"/><line style="stroke:#181818;stroke-width:1.0;" x1="531.5" x2="572.5" y1="231.125" y2="231.125"/><polygon fill="#181818" points="541.5,227.125,531.5,231.125,541.5,235.125,537.5,231.125" style="stroke:#181818;stroke-width:1.0;"/><text fill="#000000" font-family="sans-serif" font-size="13" font-weight="bold" lengthAdjust="spacing" textLength="9" x="537.5" y="213.0591">4</text><text fill="#000000" font-family="sans-serif" font-size="13" lengthAdjust="spacing" textLength="206" x="550.5" y="213.0591">Queue document for processing</text><polygon fill="#181818" points="60.5,256.2578,50.5,260.2578,60.5,264.2578,56.5,260.2578" style="stroke:#181818;stroke-width:1.0;"/><line style="stroke:#181818;stroke-width:1.0;stroke-dasharray:2.0,2.0;" x1="54.5" x2="519.5" y1="260.2578" y2="260.2578"/><text fill="#000000" font-family="sans-serif" font-size="13" font-weight="bold" lengthAdjust="spacing" textLength="9" x="66.5" y="255.1919">5</text><text fill="#000000" font-family="sans-serif" font-size="13" lengthAdjust="spacing" textLength="305" x="79.5" y="255.1919">Document accepted and queued for processing</text><polygon fill="#181818" points="508.5,285.3906,518.5,289.3906,508.5,293.3906,512.5,289.3906" style="stroke:#181818;stroke-width:1.0;"/><line style="stroke:#181818;stroke-width:1.0;" x1="49.5" x2="514.5" y1="289.3906" y2="289.3906"/><text fill="#000000" font-family="sans-serif" font-size="13" font-weight="bold" lengthAdjust="spacing" textLength="9" x="56.5" y="284.3247">6</text><text fill="#000000" font-family="sans-serif" font-size="13" lengthAdjust="spacing" textLength="253" x="69.5" y="284.3247">Check if document has been processed</text><polygon fill="#181818" points="55.5,314.5234,45.5,318.5234,55.5,322.5234,51.5,318.5234" style="stroke:#181818;stroke-width:1.0;"/><line style="stroke:#181818;stroke-width:1.0;stroke-dasharray:2.0,2.0;" x1="49.5" x2="524.5" y1="318.5234" y2="318.5234"/><text fill="#000000" font-family="sans-serif" font-size="13" font-weight="bold" lengthAdjust="spacing" textLength="9" x="61.5" y="313.4575">7</text><text fill="#000000" font-family="sans-serif" font-size="13" lengthAdjust="spacing" textLength="382" x="74.5" y="313.4575">DocumentReference either completed, failed or in-progress</text><!--SRC=[bL91Si8m3Bpd5HhEvT0UEVHI-e3237V5tX1D4piuCkNvbMSeWGATSlDuLwjTIIhQWTROPGI7fV0sSKyy4WxS3nsgLZoeYL7hUAW6JYfE1WvAi-THYPt6D2lyPNIvHz1rpCdXalaI_0tc2eQBFIhE6aFkQwJAQB9dnM-zg_-f-f99yzTh3YreLIAQOuqqfBWlgIPQWrJYqvTeIp0ZtiEVSAgk1UzqUJzeCgkaBSWVyVzNRxWJNqBwnpj_PEIpmYQcajDX72LiR-gS2Hr7jvWYitCOr8R0jhjTqVPtDVyU_5iBzqdIJDvQEu8Q23zY9lselsbbi9KXaOlbMitm4pKidKcQMGbpQx5DreCgZtktTGCvsVW6]--></g></svg>