<?xml version="1.0" encoding="UTF-8" standalone="no"?><svg xmlns="http://www.w3.org/2000/svg" xmlns:xlink="http://www.w3.org/1999/xlink" contentStyleType="text/css" height="343px" preserveAspectRatio="none" style="width:760px;height:343px;background:#FFFFFF;" version="1.1" viewBox="0 0 760 343" width="760px" zoomAndPan="magnify"><defs/><g><rect fill="none" height="26.2969" id="_title" style="stroke:none;stroke-width:1.0;" width="211" x="276.5" y="10"/><text fill="#000000" font-family="sans-serif" font-size="14" font-weight="bold" lengthAdjust="spacing" textLength="201" x="281.5" y="27.9951">Publish Document Bundle</text><rect fill="#FFFFFF" height="234.9297" style="stroke:#181818;stroke-width:1.0;" width="10" x="43" y="83.5938"/><rect fill="#FFFFFF" height="234.9297" style="stroke:#181818;stroke-width:1.0;" width="10" x="518" y="83.5938"/><line style="stroke:#181818;stroke-width:0.5;stroke-dasharray:5.0,5.0;" x1="48" x2="48" y1="73.5938" y2="336.5234"/><line style="stroke:#181818;stroke-width:0.5;stroke-dasharray:5.0,5.0;" x1="523" x2="523" y1="73.5938" y2="336.5234"/><rect fill="#E2E2F0" height="30.2969" rx="2.5" ry="2.5" style="stroke:#181818;stroke-width:0.5;" width="86" x="5" y="42.2969"/><text fill="#000000" font-family="sans-serif" font-size="14" lengthAdjust="spacing" textLength="72" x="12" y="62.292">Laboratory</text><rect fill="#E2E2F0" height="30.2969" rx="2.5" ry="2.5" style="stroke:#181818;stroke-width:0.5;" width="52" x="497" y="42.2969"/><text fill="#000000" font-family="sans-serif" font-size="14" lengthAdjust="spacing" textLength="38" x="504" y="62.292">FOPH</text><rect fill="#FFFFFF" height="234.9297" style="stroke:#181818;stroke-width:1.0;" width="10" x="43" y="83.5938"/><rect fill="#FFFFFF" height="234.9297" style="stroke:#181818;stroke-width:1.0;" width="10" x="518" y="83.5938"/><polygon fill="#181818" points="506,100.7266,516,104.7266,506,108.7266,510,104.7266" style="stroke:#181818;stroke-width:1.0;"/><line style="stroke:#181818;stroke-width:1.0;" x1="53" x2="512" y1="104.7266" y2="104.7266"/><text fill="#000000" font-family="sans-serif" font-size="13" font-weight="bold" lengthAdjust="spacing" textLength="9" x="60" y="99.6606">1</text><text fill="#000000" font-family="sans-serif" font-size="13" lengthAdjust="spacing" textLength="428" x="73" y="99.6606">Request to provide DocumentReference with embedded Document</text><line style="stroke:#181818;stroke-width:1.0;" x1="528" x2="570" y1="133.8594" y2="133.8594"/><line style="stroke:#181818;stroke-width:1.0;" x1="570" x2="570" y1="133.8594" y2="146.8594"/><line style="stroke:#181818;stroke-width:1.0;" x1="529" x2="570" y1="146.8594" y2="146.8594"/><polygon fill="#181818" points="539,142.8594,529,146.8594,539,150.8594,535,146.8594" style="stroke:#181818;stroke-width:1.0;"/><text fill="#000000" font-family="sans-serif" font-size="13" font-weight="bold" lengthAdjust="spacing" textLength="9" x="535" y="128.7935">2</text><text fill="#000000" font-family="sans-serif" font-size="13" lengthAdjust="spacing" textLength="139" x="548" y="128.7935">Extract the document</text><line style="stroke:#181818;stroke-width:1.0;" x1="528" x2="570" y1="175.9922" y2="175.9922"/><line style="stroke:#181818;stroke-width:1.0;" x1="570" x2="570" y1="175.9922" y2="188.9922"/><line style="stroke:#181818;stroke-width:1.0;" x1="529" x2="570" y1="188.9922" y2="188.9922"/><polygon fill="#181818" points="539,184.9922,529,188.9922,539,192.9922,535,188.9922" style="stroke:#181818;stroke-width:1.0;"/><text fill="#000000" font-family="sans-serif" font-size="13" font-weight="bold" lengthAdjust="spacing" textLength="9" x="535" y="170.9263">3</text><text fill="#000000" font-family="sans-serif" font-size="13" lengthAdjust="spacing" textLength="121" x="548" y="170.9263">Validate document</text><line style="stroke:#181818;stroke-width:1.0;" x1="528" x2="570" y1="218.125" y2="218.125"/><line style="stroke:#181818;stroke-width:1.0;" x1="570" x2="570" y1="218.125" y2="231.125"/><line style="stroke:#181818;stroke-width:1.0;" x1="529" x2="570" y1="231.125" y2="231.125"/><polygon fill="#181818" points="539,227.125,529,231.125,539,235.125,535,231.125" style="stroke:#181818;stroke-width:1.0;"/><text fill="#000000" font-family="sans-serif" font-size="13" font-weight="bold" lengthAdjust="spacing" textLength="9" x="535" y="213.0591">4</text><text fill="#000000" font-family="sans-serif" font-size="13" lengthAdjust="spacing" textLength="205" x="548" y="213.0591">Queue document for processing</text><polygon fill="#181818" points="64,256.2578,54,260.2578,64,264.2578,60,260.2578" style="stroke:#181818;stroke-width:1.0;"/><line style="stroke:#181818;stroke-width:1.0;stroke-dasharray:2.0,2.0;" x1="58" x2="517" y1="260.2578" y2="260.2578"/><text fill="#000000" font-family="sans-serif" font-size="13" font-weight="bold" lengthAdjust="spacing" textLength="9" x="70" y="255.1919">5</text><text fill="#000000" font-family="sans-serif" font-size="13" lengthAdjust="spacing" textLength="304" x="83" y="255.1919">Document accepted and queued for processing</text><polygon fill="#181818" points="506,285.3906,516,289.3906,506,293.3906,510,289.3906" style="stroke:#181818;stroke-width:1.0;"/><line style="stroke:#181818;stroke-width:1.0;" x1="53" x2="512" y1="289.3906" y2="289.3906"/><text fill="#000000" font-family="sans-serif" font-size="13" font-weight="bold" lengthAdjust="spacing" textLength="9" x="60" y="284.3247">6</text><text fill="#000000" font-family="sans-serif" font-size="13" lengthAdjust="spacing" textLength="252" x="73" y="284.3247">Check if document has been processed</text><polygon fill="#181818" points="59,314.5234,49,318.5234,59,322.5234,55,318.5234" style="stroke:#181818;stroke-width:1.0;"/><line style="stroke:#181818;stroke-width:1.0;stroke-dasharray:2.0,2.0;" x1="53" x2="522" y1="318.5234" y2="318.5234"/><text fill="#000000" font-family="sans-serif" font-size="13" font-weight="bold" lengthAdjust="spacing" textLength="9" x="65" y="313.4575">7</text><text fill="#000000" font-family="sans-serif" font-size="13" lengthAdjust="spacing" textLength="379" x="78" y="313.4575">DocumentReference either completed, failed or in-progress</text><!--MD5=[03647bfa64a3b6f823e10e9a2a0d2ba7]
@startuml observation
title Publish Document Bundle
hide footbox
participant "Laboratory" as DocumentSource
participant "FOPH" as DocumentRecipient
autonumber
activate DocumentSource
activate DocumentRecipient
DocumentSource -> DocumentRecipient : Request to provide DocumentReference with embedded Document 
DocumentRecipient -> DocumentRecipient : Extract the document
DocumentRecipient -> DocumentRecipient : Validate document 
DocumentRecipient -> DocumentRecipient : Queue document for processing 
DocumentRecipient - -> DocumentSource : Document accepted and queued for processing 
DocumentSource -> DocumentRecipient : Check if document has been processed 
DocumentRecipient - -> DocumentSource : DocumentReference either completed, failed or in-progress 
deactivate DocumentSource
deactivate DocumentRecipient
@enduml

PlantUML version 1.2022.7(Mon Aug 22 19:01:30 CEST 2022)
(GPL source distribution)
Java Runtime: Java(TM) SE Runtime Environment
JVM: Java HotSpot(TM) 64-Bit Server VM
Default Encoding: UTF-8
Language: en
Country: US
--></g></svg>